<?xml version="1.0" encoding="UTF-8"?>
<svg xmlns="http://www.w3.org/2000/svg" xmlns:xlink="http://www.w3.org/1999/xlink" width="4800" height="4800" viewBox="0 0 4800 4800">
<defs>
<clipPath id="clip-0">
<path clip-rule="nonzero" d="M 2220 1664 L 2329 1664 L 2329 1755 L 2220 1755 Z M 2220 1664 "/>
</clipPath>
<clipPath id="clip-1">
<path clip-rule="evenodd" d="M 2258.410156 1665.550781 C 1913.640625 1660.710938 1674.351562 1243.710938 1647.078125 840.738281 C 1619.570312 434.03125 1929.640625 102.089844 2277.660156 102.089844 C 2625.691406 102.089844 2937.660156 434.160156 2908.238281 840.738281 C 2878.710938 1248.960938 2627.46875 1642.480469 2294.078125 1664.621094 L 2297.289062 1664.75 C 2367.308594 1671.28125 2465.511719 1857.460938 2336.660156 2130 C 2293.851562 2220.550781 2231.988281 2345.179688 2238.269531 2554.390625 C 2243.078125 2714.941406 2331.300781 2889.140625 2364.859375 2991.300781 C 2385.988281 3055.640625 2387.261719 3058.050781 2400.148438 3154.128906 C 2410.710938 3232.800781 2410.449219 3408.398438 2397.730469 3497.839844 C 2385.011719 3587.289062 2347.808594 3634 2323.851562 3690.808594 C 2292.980469 3764.011719 2242.589844 3906.289062 2259.441406 3962.445312 C 2265.671875 3983.230469 2276.058594 3992.121094 2287.710938 4004.207031 C 2306.96875 4024.179688 2329.671875 4052.871094 2342.78125 4158.347656 C 2345.679688 4181.679688 2353.75 4256.980469 2344.878906 4321.359375 C 2337.910156 4371.96875 2301 4405.035156 2291.078125 4446.882812 C 2283.019531 4480.886719 2282.691406 4556.84375 2285.359375 4572.4375 C 2288.039062 4588.035156 2317.621094 4674.007812 2288.199219 4594.109375 C 2276.449219 4562.191406 2255.238281 4464.746094 2262.578125 4406.457031 C 2271.988281 4331.746094 2318.699219 4252.871094 2331.558594 4188.996094 C 2340.578125 4144.238281 2304.679688 4099.226562 2285.96875 4059.140625 C 2264.96875 4014.121094 2255.140625 3983.691406 2251.339844 3939.847656 C 2238.941406 3796.980469 2249.730469 3705.621094 2295.5 3614.820312 C 2328.261719 3549.808594 2382.941406 3473.339844 2386.121094 3347.808594 C 2394.03125 3035.839844 2324.46875 2939.808594 2279.761719 2843.199219 C 2229.25 2734.019531 2210.238281 2563.679688 2215.980469 2425.328125 C 2221.71875 2286.988281 2290.609375 2121 2314.191406 2013.109375 C 2341.511719 1888.078125 2366.78125 1806.238281 2349.089844 1750.230469 C 2342.871094 1730.511719 2307.089844 1696.660156 2297.289062 1670.570312 L 2297.289062 1673.140625 L 2294.851562 1673.140625 C 2295.53125 1674.710938 2296.28125 1676.460938 2297.101562 1678.328125 C 2304.421875 1687.390625 2324.261719 1715.96875 2330.949219 1725.488281 L 2304.539062 1694.769531 C 2311.398438 1709.371094 2319.328125 1724.5 2324.089844 1727.871094 C 2324.710938 1728.300781 2324.851562 1727.839844 2326.230469 1727.929688 C 2329.941406 1728.179688 2331.539062 1731.289062 2331.769531 1736.929688 C 2331.789062 1737.230469 2331.789062 1737.53125 2331.789062 1737.820312 C 2331.851562 1743.980469 2330.011719 1750.839844 2326.230469 1751.769531 C 2310.089844 1755.738281 2245.539062 1755.738281 2229.410156 1751.769531 C 2225.800781 1750.878906 2223.839844 1748.980469 2223.71875 1743.121094 C 2223.601562 1742.058594 2223.578125 1736.460938 2223.78125 1735.421875 C 2224.789062 1730.039062 2231.699219 1728.929688 2232.960938 1729 C 2241.601562 1729.488281 2254.289062 1694.761719 2260.351562 1676.5 C 2260.351562 1676.5 2256.109375 1676.320312 2254.460938 1677.449219 C 2244.640625 1684.140625 2201.410156 1716.660156 2201.410156 1716.660156 C 2217.128906 1701.519531 2242.480469 1672.488281 2258.410156 1666.351562 Z M 2258.410156 1665.550781 "/>
</clipPath>
<clipPath id="clip-2">
<path clip-rule="nonzero" d="M 2205 1664 L 2325 1664 L 2325 1755 L 2205 1755 Z M 2205 1664 "/>
</clipPath>
<clipPath id="clip-3">
<path clip-rule="evenodd" d="M 2258.410156 1665.550781 C 1913.640625 1660.710938 1674.351562 1243.710938 1647.078125 840.738281 C 1619.570312 434.03125 1929.640625 102.089844 2277.660156 102.089844 C 2625.691406 102.089844 2937.660156 434.160156 2908.238281 840.738281 C 2878.710938 1248.960938 2627.46875 1642.480469 2294.078125 1664.621094 L 2297.289062 1664.75 C 2367.308594 1671.28125 2465.511719 1857.460938 2336.660156 2130 C 2293.851562 2220.550781 2231.988281 2345.179688 2238.269531 2554.390625 C 2243.078125 2714.941406 2331.300781 2889.140625 2364.859375 2991.300781 C 2385.988281 3055.640625 2387.261719 3058.050781 2400.148438 3154.128906 C 2410.710938 3232.800781 2410.449219 3408.398438 2397.730469 3497.839844 C 2385.011719 3587.289062 2347.808594 3634 2323.851562 3690.808594 C 2292.980469 3764.011719 2242.589844 3906.289062 2259.441406 3962.445312 C 2265.671875 3983.230469 2276.058594 3992.121094 2287.710938 4004.207031 C 2306.96875 4024.179688 2329.671875 4052.871094 2342.78125 4158.347656 C 2345.679688 4181.679688 2353.75 4256.980469 2344.878906 4321.359375 C 2337.910156 4371.96875 2301 4405.035156 2291.078125 4446.882812 C 2283.019531 4480.886719 2282.691406 4556.84375 2285.359375 4572.4375 C 2288.039062 4588.035156 2317.621094 4674.007812 2288.199219 4594.109375 C 2276.449219 4562.191406 2255.238281 4464.746094 2262.578125 4406.457031 C 2271.988281 4331.746094 2318.699219 4252.871094 2331.558594 4188.996094 C 2340.578125 4144.238281 2304.679688 4099.226562 2285.96875 4059.140625 C 2264.96875 4014.121094 2255.140625 3983.691406 2251.339844 3939.847656 C 2238.941406 3796.980469 2249.730469 3705.621094 2295.5 3614.820312 C 2328.261719 3549.808594 2382.941406 3473.339844 2386.121094 3347.808594 C 2394.03125 3035.839844 2324.46875 2939.808594 2279.761719 2843.199219 C 2229.25 2734.019531 2210.238281 2563.679688 2215.980469 2425.328125 C 2221.71875 2286.988281 2290.609375 2121 2314.191406 2013.109375 C 2341.511719 1888.078125 2366.78125 1806.238281 2349.089844 1750.230469 C 2342.871094 1730.511719 2307.089844 1696.660156 2297.289062 1670.570312 L 2297.289062 1673.140625 L 2294.851562 1673.140625 C 2295.53125 1674.710938 2296.28125 1676.460938 2297.101562 1678.328125 C 2304.421875 1687.390625 2324.261719 1715.96875 2330.949219 1725.488281 L 2304.539062 1694.769531 C 2311.398438 1709.371094 2319.328125 1724.5 2324.089844 1727.871094 C 2324.710938 1728.300781 2324.851562 1727.839844 2326.230469 1727.929688 C 2329.941406 1728.179688 2331.539062 1731.289062 2331.769531 1736.929688 C 2331.789062 1737.230469 2331.789062 1737.53125 2331.789062 1737.820312 C 2331.851562 1743.980469 2330.011719 1750.839844 2326.230469 1751.769531 C 2310.089844 1755.738281 2245.539062 1755.738281 2229.410156 1751.769531 C 2225.800781 1750.878906 2223.839844 1748.980469 2223.71875 1743.121094 C 2223.601562 1742.058594 2223.578125 1736.460938 2223.78125 1735.421875 C 2224.789062 1730.039062 2231.699219 1728.929688 2232.960938 1729 C 2241.601562 1729.488281 2254.289062 1694.761719 2260.351562 1676.5 C 2260.351562 1676.5 2256.109375 1676.320312 2254.460938 1677.449219 C 2244.640625 1684.140625 2201.410156 1716.660156 2201.410156 1716.660156 C 2217.128906 1701.519531 2242.480469 1672.488281 2258.410156 1666.351562 Z M 2258.410156 1665.550781 "/>
</clipPath>
<clipPath id="clip-4">
<path clip-rule="nonzero" d="M 2223 1664 L 2331 1664 L 2331 1754 L 2223 1754 Z M 2223 1664 "/>
</clipPath>
<clipPath id="clip-5">
<path clip-rule="evenodd" d="M 2258.410156 1665.550781 C 1913.640625 1660.710938 1674.351562 1243.710938 1647.078125 840.738281 C 1619.570312 434.03125 1929.640625 102.089844 2277.660156 102.089844 C 2625.691406 102.089844 2937.660156 434.160156 2908.238281 840.738281 C 2878.710938 1248.960938 2627.46875 1642.480469 2294.078125 1664.621094 L 2297.289062 1664.75 C 2367.308594 1671.28125 2465.511719 1857.460938 2336.660156 2130 C 2293.851562 2220.550781 2231.988281 2345.179688 2238.269531 2554.390625 C 2243.078125 2714.941406 2331.300781 2889.140625 2364.859375 2991.300781 C 2385.988281 3055.640625 2387.261719 3058.050781 2400.148438 3154.128906 C 2410.710938 3232.800781 2410.449219 3408.398438 2397.730469 3497.839844 C 2385.011719 3587.289062 2347.808594 3634 2323.851562 3690.808594 C 2292.980469 3764.011719 2242.589844 3906.289062 2259.441406 3962.445312 C 2265.671875 3983.230469 2276.058594 3992.121094 2287.710938 4004.207031 C 2306.96875 4024.179688 2329.671875 4052.871094 2342.78125 4158.347656 C 2345.679688 4181.679688 2353.75 4256.980469 2344.878906 4321.359375 C 2337.910156 4371.96875 2301 4405.035156 2291.078125 4446.882812 C 2283.019531 4480.886719 2282.691406 4556.84375 2285.359375 4572.4375 C 2288.039062 4588.035156 2317.621094 4674.007812 2288.199219 4594.109375 C 2276.449219 4562.191406 2255.238281 4464.746094 2262.578125 4406.457031 C 2271.988281 4331.746094 2318.699219 4252.871094 2331.558594 4188.996094 C 2340.578125 4144.238281 2304.679688 4099.226562 2285.96875 4059.140625 C 2264.96875 4014.121094 2255.140625 3983.691406 2251.339844 3939.847656 C 2238.941406 3796.980469 2249.730469 3705.621094 2295.5 3614.820312 C 2328.261719 3549.808594 2382.941406 3473.339844 2386.121094 3347.808594 C 2394.03125 3035.839844 2324.46875 2939.808594 2279.761719 2843.199219 C 2229.25 2734.019531 2210.238281 2563.679688 2215.980469 2425.328125 C 2221.71875 2286.988281 2290.609375 2121 2314.191406 2013.109375 C 2341.511719 1888.078125 2366.78125 1806.238281 2349.089844 1750.230469 C 2342.871094 1730.511719 2307.089844 1696.660156 2297.289062 1670.570312 L 2297.289062 1673.140625 L 2294.851562 1673.140625 C 2295.53125 1674.710938 2296.28125 1676.460938 2297.101562 1678.328125 C 2304.421875 1687.390625 2324.261719 1715.96875 2330.949219 1725.488281 L 2304.539062 1694.769531 C 2311.398438 1709.371094 2319.328125 1724.5 2324.089844 1727.871094 C 2324.710938 1728.300781 2324.851562 1727.839844 2326.230469 1727.929688 C 2329.941406 1728.179688 2331.539062 1731.289062 2331.769531 1736.929688 C 2331.789062 1737.230469 2331.789062 1737.53125 2331.789062 1737.820312 C 2331.851562 1743.980469 2330.011719 1750.839844 2326.230469 1751.769531 C 2310.089844 1755.738281 2245.539062 1755.738281 2229.410156 1751.769531 C 2225.800781 1750.878906 2223.839844 1748.980469 2223.71875 1743.121094 C 2223.601562 1742.058594 2223.578125 1736.460938 2223.78125 1735.421875 C 2224.789062 1730.039062 2231.699219 1728.929688 2232.960938 1729 C 2241.601562 1729.488281 2254.289062 1694.761719 2260.351562 1676.5 C 2260.351562 1676.5 2256.109375 1676.320312 2254.460938 1677.449219 C 2244.640625 1684.140625 2201.410156 1716.660156 2201.410156 1716.660156 C 2217.128906 1701.519531 2242.480469 1672.488281 2258.410156 1666.351562 Z M 2258.410156 1665.550781 "/>
</clipPath>
<clipPath id="clip-6">
<path clip-rule="nonzero" d="M 2222 1727 L 2332 1727 L 2332 1756 L 2222 1756 Z M 2222 1727 "/>
</clipPath>
<clipPath id="clip-7">
<path clip-rule="evenodd" d="M 2258.410156 1665.550781 C 1913.640625 1660.710938 1674.351562 1243.710938 1647.078125 840.738281 C 1619.570312 434.03125 1929.640625 102.089844 2277.660156 102.089844 C 2625.691406 102.089844 2937.660156 434.160156 2908.238281 840.738281 C 2878.710938 1248.960938 2627.46875 1642.480469 2294.078125 1664.621094 L 2297.289062 1664.75 C 2367.308594 1671.28125 2465.511719 1857.460938 2336.660156 2130 C 2293.851562 2220.550781 2231.988281 2345.179688 2238.269531 2554.390625 C 2243.078125 2714.941406 2331.300781 2889.140625 2364.859375 2991.300781 C 2385.988281 3055.640625 2387.261719 3058.050781 2400.148438 3154.128906 C 2410.710938 3232.800781 2410.449219 3408.398438 2397.730469 3497.839844 C 2385.011719 3587.289062 2347.808594 3634 2323.851562 3690.808594 C 2292.980469 3764.011719 2242.589844 3906.289062 2259.441406 3962.445312 C 2265.671875 3983.230469 2276.058594 3992.121094 2287.710938 4004.207031 C 2306.96875 4024.179688 2329.671875 4052.871094 2342.78125 4158.347656 C 2345.679688 4181.679688 2353.75 4256.980469 2344.878906 4321.359375 C 2337.910156 4371.96875 2301 4405.035156 2291.078125 4446.882812 C 2283.019531 4480.886719 2282.691406 4556.84375 2285.359375 4572.4375 C 2288.039062 4588.035156 2317.621094 4674.007812 2288.199219 4594.109375 C 2276.449219 4562.191406 2255.238281 4464.746094 2262.578125 4406.457031 C 2271.988281 4331.746094 2318.699219 4252.871094 2331.558594 4188.996094 C 2340.578125 4144.238281 2304.679688 4099.226562 2285.96875 4059.140625 C 2264.96875 4014.121094 2255.140625 3983.691406 2251.339844 3939.847656 C 2238.941406 3796.980469 2249.730469 3705.621094 2295.5 3614.820312 C 2328.261719 3549.808594 2382.941406 3473.339844 2386.121094 3347.808594 C 2394.03125 3035.839844 2324.46875 2939.808594 2279.761719 2843.199219 C 2229.25 2734.019531 2210.238281 2563.679688 2215.980469 2425.328125 C 2221.71875 2286.988281 2290.609375 2121 2314.191406 2013.109375 C 2341.511719 1888.078125 2366.78125 1806.238281 2349.089844 1750.230469 C 2342.871094 1730.511719 2307.089844 1696.660156 2297.289062 1670.570312 L 2297.289062 1673.140625 L 2294.851562 1673.140625 C 2295.53125 1674.710938 2296.28125 1676.460938 2297.101562 1678.328125 C 2304.421875 1687.390625 2324.261719 1715.96875 2330.949219 1725.488281 L 2304.539062 1694.769531 C 2311.398438 1709.371094 2319.328125 1724.5 2324.089844 1727.871094 C 2324.710938 1728.300781 2324.851562 1727.839844 2326.230469 1727.929688 C 2329.941406 1728.179688 2331.539062 1731.289062 2331.769531 1736.929688 C 2331.789062 1737.230469 2331.789062 1737.53125 2331.789062 1737.820312 C 2331.851562 1743.980469 2330.011719 1750.839844 2326.230469 1751.769531 C 2310.089844 1755.738281 2245.539062 1755.738281 2229.410156 1751.769531 C 2225.800781 1750.878906 2223.839844 1748.980469 2223.71875 1743.121094 C 2223.601562 1742.058594 2223.578125 1736.460938 2223.78125 1735.421875 C 2224.789062 1730.039062 2231.699219 1728.929688 2232.960938 1729 C 2241.601562 1729.488281 2254.289062 1694.761719 2260.351562 1676.5 C 2260.351562 1676.5 2256.109375 1676.320312 2254.460938 1677.449219 C 2244.640625 1684.140625 2201.410156 1716.660156 2201.410156 1716.660156 C 2217.128906 1701.519531 2242.480469 1672.488281 2258.410156 1666.351562 Z M 2258.410156 1665.550781 "/>
</clipPath>
<clipPath id="clip-8">
<path clip-rule="nonzero" d="M 1645 102 L 2801 102 L 2801 1610 L 1645 1610 Z M 1645 102 "/>
</clipPath>
<clipPath id="clip-9">
<path clip-rule="evenodd" d="M 2258.410156 1665.550781 C 1913.640625 1660.710938 1674.351562 1243.710938 1647.078125 840.738281 C 1619.570312 434.03125 1929.640625 102.089844 2277.660156 102.089844 C 2625.691406 102.089844 2937.660156 434.160156 2908.238281 840.738281 C 2878.710938 1248.960938 2627.46875 1642.480469 2294.078125 1664.621094 L 2297.289062 1664.75 C 2367.308594 1671.28125 2465.511719 1857.460938 2336.660156 2130 C 2293.851562 2220.550781 2231.988281 2345.179688 2238.269531 2554.390625 C 2243.078125 2714.941406 2331.300781 2889.140625 2364.859375 2991.300781 C 2385.988281 3055.640625 2387.261719 3058.050781 2400.148438 3154.128906 C 2410.710938 3232.800781 2410.449219 3408.398438 2397.730469 3497.839844 C 2385.011719 3587.289062 2347.808594 3634 2323.851562 3690.808594 C 2292.980469 3764.011719 2242.589844 3906.289062 2259.441406 3962.445312 C 2265.671875 3983.230469 2276.058594 3992.121094 2287.710938 4004.207031 C 2306.96875 4024.179688 2329.671875 4052.871094 2342.78125 4158.347656 C 2345.679688 4181.679688 2353.75 4256.980469 2344.878906 4321.359375 C 2337.910156 4371.96875 2301 4405.035156 2291.078125 4446.882812 C 2283.019531 4480.886719 2282.691406 4556.84375 2285.359375 4572.4375 C 2288.039062 4588.035156 2317.621094 4674.007812 2288.199219 4594.109375 C 2276.449219 4562.191406 2255.238281 4464.746094 2262.578125 4406.457031 C 2271.988281 4331.746094 2318.699219 4252.871094 2331.558594 4188.996094 C 2340.578125 4144.238281 2304.679688 4099.226562 2285.96875 4059.140625 C 2264.96875 4014.121094 2255.140625 3983.691406 2251.339844 3939.847656 C 2238.941406 3796.980469 2249.730469 3705.621094 2295.5 3614.820312 C 2328.261719 3549.808594 2382.941406 3473.339844 2386.121094 3347.808594 C 2394.03125 3035.839844 2324.46875 2939.808594 2279.761719 2843.199219 C 2229.25 2734.019531 2210.238281 2563.679688 2215.980469 2425.328125 C 2221.71875 2286.988281 2290.609375 2121 2314.191406 2013.109375 C 2341.511719 1888.078125 2366.78125 1806.238281 2349.089844 1750.230469 C 2342.871094 1730.511719 2307.089844 1696.660156 2297.289062 1670.570312 L 2297.289062 1673.140625 L 2294.851562 1673.140625 C 2295.53125 1674.710938 2296.28125 1676.460938 2297.101562 1678.328125 C 2304.421875 1687.390625 2324.261719 1715.96875 2330.949219 1725.488281 L 2304.539062 1694.769531 C 2311.398438 1709.371094 2319.328125 1724.5 2324.089844 1727.871094 C 2324.710938 1728.300781 2324.851562 1727.839844 2326.230469 1727.929688 C 2329.941406 1728.179688 2331.539062 1731.289062 2331.769531 1736.929688 C 2331.789062 1737.230469 2331.789062 1737.53125 2331.789062 1737.820312 C 2331.851562 1743.980469 2330.011719 1750.839844 2326.230469 1751.769531 C 2310.089844 1755.738281 2245.539062 1755.738281 2229.410156 1751.769531 C 2225.800781 1750.878906 2223.839844 1748.980469 2223.71875 1743.121094 C 2223.601562 1742.058594 2223.578125 1736.460938 2223.78125 1735.421875 C 2224.789062 1730.039062 2231.699219 1728.929688 2232.960938 1729 C 2241.601562 1729.488281 2254.289062 1694.761719 2260.351562 1676.5 C 2260.351562 1676.5 2256.109375 1676.320312 2254.460938 1677.449219 C 2244.640625 1684.140625 2201.410156 1716.660156 2201.410156 1716.660156 C 2217.128906 1701.519531 2242.480469 1672.488281 2258.410156 1666.351562 Z M 2258.410156 1665.550781 "/>
</clipPath>
<clipPath id="clip-10">
<path clip-rule="nonzero" d="M 1655 102 L 2462 102 L 2462 1181 L 1655 1181 Z M 1655 102 "/>
</clipPath>
<clipPath id="clip-11">
<path clip-rule="evenodd" d="M 2258.410156 1665.550781 C 1913.640625 1660.710938 1674.351562 1243.710938 1647.078125 840.738281 C 1619.570312 434.03125 1929.640625 102.089844 2277.660156 102.089844 C 2625.691406 102.089844 2937.660156 434.160156 2908.238281 840.738281 C 2878.710938 1248.960938 2627.46875 1642.480469 2294.078125 1664.621094 L 2297.289062 1664.75 C 2367.308594 1671.28125 2465.511719 1857.460938 2336.660156 2130 C 2293.851562 2220.550781 2231.988281 2345.179688 2238.269531 2554.390625 C 2243.078125 2714.941406 2331.300781 2889.140625 2364.859375 2991.300781 C 2385.988281 3055.640625 2387.261719 3058.050781 2400.148438 3154.128906 C 2410.710938 3232.800781 2410.449219 3408.398438 2397.730469 3497.839844 C 2385.011719 3587.289062 2347.808594 3634 2323.851562 3690.808594 C 2292.980469 3764.011719 2242.589844 3906.289062 2259.441406 3962.445312 C 2265.671875 3983.230469 2276.058594 3992.121094 2287.710938 4004.207031 C 2306.96875 4024.179688 2329.671875 4052.871094 2342.78125 4158.347656 C 2345.679688 4181.679688 2353.75 4256.980469 2344.878906 4321.359375 C 2337.910156 4371.96875 2301 4405.035156 2291.078125 4446.882812 C 2283.019531 4480.886719 2282.691406 4556.84375 2285.359375 4572.4375 C 2288.039062 4588.035156 2317.621094 4674.007812 2288.199219 4594.109375 C 2276.449219 4562.191406 2255.238281 4464.746094 2262.578125 4406.457031 C 2271.988281 4331.746094 2318.699219 4252.871094 2331.558594 4188.996094 C 2340.578125 4144.238281 2304.679688 4099.226562 2285.96875 4059.140625 C 2264.96875 4014.121094 2255.140625 3983.691406 2251.339844 3939.847656 C 2238.941406 3796.980469 2249.730469 3705.621094 2295.5 3614.820312 C 2328.261719 3549.808594 2382.941406 3473.339844 2386.121094 3347.808594 C 2394.03125 3035.839844 2324.46875 2939.808594 2279.761719 2843.199219 C 2229.25 2734.019531 2210.238281 2563.679688 2215.980469 2425.328125 C 2221.71875 2286.988281 2290.609375 2121 2314.191406 2013.109375 C 2341.511719 1888.078125 2366.78125 1806.238281 2349.089844 1750.230469 C 2342.871094 1730.511719 2307.089844 1696.660156 2297.289062 1670.570312 L 2297.289062 1673.140625 L 2294.851562 1673.140625 C 2295.53125 1674.710938 2296.28125 1676.460938 2297.101562 1678.328125 C 2304.421875 1687.390625 2324.261719 1715.96875 2330.949219 1725.488281 L 2304.539062 1694.769531 C 2311.398438 1709.371094 2319.328125 1724.5 2324.089844 1727.871094 C 2324.710938 1728.300781 2324.851562 1727.839844 2326.230469 1727.929688 C 2329.941406 1728.179688 2331.539062 1731.289062 2331.769531 1736.929688 C 2331.789062 1737.230469 2331.789062 1737.53125 2331.789062 1737.820312 C 2331.851562 1743.980469 2330.011719 1750.839844 2326.230469 1751.769531 C 2310.089844 1755.738281 2245.539062 1755.738281 2229.410156 1751.769531 C 2225.800781 1750.878906 2223.839844 1748.980469 2223.71875 1743.121094 C 2223.601562 1742.058594 2223.578125 1736.460938 2223.78125 1735.421875 C 2224.789062 1730.039062 2231.699219 1728.929688 2232.960938 1729 C 2241.601562 1729.488281 2254.289062 1694.761719 2260.351562 1676.5 C 2260.351562 1676.5 2256.109375 1676.320312 2254.460938 1677.449219 C 2244.640625 1684.140625 2201.410156 1716.660156 2201.410156 1716.660156 C 2217.128906 1701.519531 2242.480469 1672.488281 2258.410156 1666.351562 Z M 2258.410156 1665.550781 "/>
</clipPath>
<clipPath id="clip-12">
<path clip-rule="nonzero" d="M 1825 213 L 2184 213 L 2184 602 L 1825 602 Z M 1825 213 "/>
</clipPath>
<clipPath id="clip-13">
<path clip-rule="evenodd" d="M 2258.410156 1665.550781 C 1913.640625 1660.710938 1674.351562 1243.710938 1647.078125 840.738281 C 1619.570312 434.03125 1929.640625 102.089844 2277.660156 102.089844 C 2625.691406 102.089844 2937.660156 434.160156 2908.238281 840.738281 C 2878.710938 1248.960938 2627.46875 1642.480469 2294.078125 1664.621094 L 2297.289062 1664.75 C 2367.308594 1671.28125 2465.511719 1857.460938 2336.660156 2130 C 2293.851562 2220.550781 2231.988281 2345.179688 2238.269531 2554.390625 C 2243.078125 2714.941406 2331.300781 2889.140625 2364.859375 2991.300781 C 2385.988281 3055.640625 2387.261719 3058.050781 2400.148438 3154.128906 C 2410.710938 3232.800781 2410.449219 3408.398438 2397.730469 3497.839844 C 2385.011719 3587.289062 2347.808594 3634 2323.851562 3690.808594 C 2292.980469 3764.011719 2242.589844 3906.289062 2259.441406 3962.445312 C 2265.671875 3983.230469 2276.058594 3992.121094 2287.710938 4004.207031 C 2306.96875 4024.179688 2329.671875 4052.871094 2342.78125 4158.347656 C 2345.679688 4181.679688 2353.75 4256.980469 2344.878906 4321.359375 C 2337.910156 4371.96875 2301 4405.035156 2291.078125 4446.882812 C 2283.019531 4480.886719 2282.691406 4556.84375 2285.359375 4572.4375 C 2288.039062 4588.035156 2317.621094 4674.007812 2288.199219 4594.109375 C 2276.449219 4562.191406 2255.238281 4464.746094 2262.578125 4406.457031 C 2271.988281 4331.746094 2318.699219 4252.871094 2331.558594 4188.996094 C 2340.578125 4144.238281 2304.679688 4099.226562 2285.96875 4059.140625 C 2264.96875 4014.121094 2255.140625 3983.691406 2251.339844 3939.847656 C 2238.941406 3796.980469 2249.730469 3705.621094 2295.5 3614.820312 C 2328.261719 3549.808594 2382.941406 3473.339844 2386.121094 3347.808594 C 2394.03125 3035.839844 2324.46875 2939.808594 2279.761719 2843.199219 C 2229.25 2734.019531 2210.238281 2563.679688 2215.980469 2425.328125 C 2221.71875 2286.988281 2290.609375 2121 2314.191406 2013.109375 C 2341.511719 1888.078125 2366.78125 1806.238281 2349.089844 1750.230469 C 2342.871094 1730.511719 2307.089844 1696.660156 2297.289062 1670.570312 L 2297.289062 1673.140625 L 2294.851562 1673.140625 C 2295.53125 1674.710938 2296.28125 1676.460938 2297.101562 1678.328125 C 2304.421875 1687.390625 2324.261719 1715.96875 2330.949219 1725.488281 L 2304.539062 1694.769531 C 2311.398438 1709.371094 2319.328125 1724.5 2324.089844 1727.871094 C 2324.710938 1728.300781 2324.851562 1727.839844 2326.230469 1727.929688 C 2329.941406 1728.179688 2331.539062 1731.289062 2331.769531 1736.929688 C 2331.789062 1737.230469 2331.789062 1737.53125 2331.789062 1737.820312 C 2331.851562 1743.980469 2330.011719 1750.839844 2326.230469 1751.769531 C 2310.089844 1755.738281 2245.539062 1755.738281 2229.410156 1751.769531 C 2225.800781 1750.878906 2223.839844 1748.980469 2223.71875 1743.121094 C 2223.601562 1742.058594 2223.578125 1736.460938 2223.78125 1735.421875 C 2224.789062 1730.039062 2231.699219 1728.929688 2232.960938 1729 C 2241.601562 1729.488281 2254.289062 1694.761719 2260.351562 1676.5 C 2260.351562 1676.5 2256.109375 1676.320312 2254.460938 1677.449219 C 2244.640625 1684.140625 2201.410156 1716.660156 2201.410156 1716.660156 C 2217.128906 1701.519531 2242.480469 1672.488281 2258.410156 1666.351562 Z M 2258.410156 1665.550781 "/>
</clipPath>
<clipPath id="clip-14">
<path clip-rule="nonzero" d="M 1721 597 L 1850 597 L 1850 730 L 1721 730 Z M 1721 597 "/>
</clipPath>
<clipPath id="clip-15">
<path clip-rule="evenodd" d="M 2258.410156 1665.550781 C 1913.640625 1660.710938 1674.351562 1243.710938 1647.078125 840.738281 C 1619.570312 434.03125 1929.640625 102.089844 2277.660156 102.089844 C 2625.691406 102.089844 2937.660156 434.160156 2908.238281 840.738281 C 2878.710938 1248.960938 2627.46875 1642.480469 2294.078125 1664.621094 L 2297.289062 1664.75 C 2367.308594 1671.28125 2465.511719 1857.460938 2336.660156 2130 C 2293.851562 2220.550781 2231.988281 2345.179688 2238.269531 2554.390625 C 2243.078125 2714.941406 2331.300781 2889.140625 2364.859375 2991.300781 C 2385.988281 3055.640625 2387.261719 3058.050781 2400.148438 3154.128906 C 2410.710938 3232.800781 2410.449219 3408.398438 2397.730469 3497.839844 C 2385.011719 3587.289062 2347.808594 3634 2323.851562 3690.808594 C 2292.980469 3764.011719 2242.589844 3906.289062 2259.441406 3962.445312 C 2265.671875 3983.230469 2276.058594 3992.121094 2287.710938 4004.207031 C 2306.96875 4024.179688 2329.671875 4052.871094 2342.78125 4158.347656 C 2345.679688 4181.679688 2353.75 4256.980469 2344.878906 4321.359375 C 2337.910156 4371.96875 2301 4405.035156 2291.078125 4446.882812 C 2283.019531 4480.886719 2282.691406 4556.84375 2285.359375 4572.4375 C 2288.039062 4588.035156 2317.621094 4674.007812 2288.199219 4594.109375 C 2276.449219 4562.191406 2255.238281 4464.746094 2262.578125 4406.457031 C 2271.988281 4331.746094 2318.699219 4252.871094 2331.558594 4188.996094 C 2340.578125 4144.238281 2304.679688 4099.226562 2285.96875 4059.140625 C 2264.96875 4014.121094 2255.140625 3983.691406 2251.339844 3939.847656 C 2238.941406 3796.980469 2249.730469 3705.621094 2295.5 3614.820312 C 2328.261719 3549.808594 2382.941406 3473.339844 2386.121094 3347.808594 C 2394.03125 3035.839844 2324.46875 2939.808594 2279.761719 2843.199219 C 2229.25 2734.019531 2210.238281 2563.679688 2215.980469 2425.328125 C 2221.71875 2286.988281 2290.609375 2121 2314.191406 2013.109375 C 2341.511719 1888.078125 2366.78125 1806.238281 2349.089844 1750.230469 C 2342.871094 1730.511719 2307.089844 1696.660156 2297.289062 1670.570312 L 2297.289062 1673.140625 L 2294.851562 1673.140625 C 2295.53125 1674.710938 2296.28125 1676.460938 2297.101562 1678.328125 C 2304.421875 1687.390625 2324.261719 1715.96875 2330.949219 1725.488281 L 2304.539062 1694.769531 C 2311.398438 1709.371094 2319.328125 1724.5 2324.089844 1727.871094 C 2324.710938 1728.300781 2324.851562 1727.839844 2326.230469 1727.929688 C 2329.941406 1728.179688 2331.539062 1731.289062 2331.769531 1736.929688 C 2331.789062 1737.230469 2331.789062 1737.53125 2331.789062 1737.820312 C 2331.851562 1743.980469 2330.011719 1750.839844 2326.230469 1751.769531 C 2310.089844 1755.738281 2245.539062 1755.738281 2229.410156 1751.769531 C 2225.800781 1750.878906 2223.839844 1748.980469 2223.71875 1743.121094 C 2223.601562 1742.058594 2223.578125 1736.460938 2223.78125 1735.421875 C 2224.789062 1730.039062 2231.699219 1728.929688 2232.960938 1729 C 2241.601562 1729.488281 2254.289062 1694.761719 2260.351562 1676.5 C 2260.351562 1676.5 2256.109375 1676.320312 2254.460938 1677.449219 C 2244.640625 1684.140625 2201.410156 1716.660156 2201.410156 1716.660156 C 2217.128906 1701.519531 2242.480469 1672.488281 2258.410156 1666.351562 Z M 2258.410156 1665.550781 "/>
</clipPath>
<clipPath id="clip-16">
<path clip-rule="nonzero" d="M 2236 2505 L 2405 2505 L 2405 3475 L 2236 3475 Z M 2236 2505 "/>
</clipPath>
<clipPath id="clip-17">
<path clip-rule="evenodd" d="M 2258.410156 1665.550781 C 1913.640625 1660.710938 1674.351562 1243.710938 1647.078125 840.738281 C 1619.570312 434.03125 1929.640625 102.089844 2277.660156 102.089844 C 2625.691406 102.089844 2937.660156 434.160156 2908.238281 840.738281 C 2878.710938 1248.960938 2627.46875 1642.480469 2294.078125 1664.621094 L 2297.289062 1664.75 C 2367.308594 1671.28125 2465.511719 1857.460938 2336.660156 2130 C 2293.851562 2220.550781 2231.988281 2345.179688 2238.269531 2554.390625 C 2243.078125 2714.941406 2331.300781 2889.140625 2364.859375 2991.300781 C 2385.988281 3055.640625 2387.261719 3058.050781 2400.148438 3154.128906 C 2410.710938 3232.800781 2410.449219 3408.398438 2397.730469 3497.839844 C 2385.011719 3587.289062 2347.808594 3634 2323.851562 3690.808594 C 2292.980469 3764.011719 2242.589844 3906.289062 2259.441406 3962.445312 C 2265.671875 3983.230469 2276.058594 3992.121094 2287.710938 4004.207031 C 2306.96875 4024.179688 2329.671875 4052.871094 2342.78125 4158.347656 C 2345.679688 4181.679688 2353.75 4256.980469 2344.878906 4321.359375 C 2337.910156 4371.96875 2301 4405.035156 2291.078125 4446.882812 C 2283.019531 4480.886719 2282.691406 4556.84375 2285.359375 4572.4375 C 2288.039062 4588.035156 2317.621094 4674.007812 2288.199219 4594.109375 C 2276.449219 4562.191406 2255.238281 4464.746094 2262.578125 4406.457031 C 2271.988281 4331.746094 2318.699219 4252.871094 2331.558594 4188.996094 C 2340.578125 4144.238281 2304.679688 4099.226562 2285.96875 4059.140625 C 2264.96875 4014.121094 2255.140625 3983.691406 2251.339844 3939.847656 C 2238.941406 3796.980469 2249.730469 3705.621094 2295.5 3614.820312 C 2328.261719 3549.808594 2382.941406 3473.339844 2386.121094 3347.808594 C 2394.03125 3035.839844 2324.46875 2939.808594 2279.761719 2843.199219 C 2229.25 2734.019531 2210.238281 2563.679688 2215.980469 2425.328125 C 2221.71875 2286.988281 2290.609375 2121 2314.191406 2013.109375 C 2341.511719 1888.078125 2366.78125 1806.238281 2349.089844 1750.230469 C 2342.871094 1730.511719 2307.089844 1696.660156 2297.289062 1670.570312 L 2297.289062 1673.140625 L 2294.851562 1673.140625 C 2295.53125 1674.710938 2296.28125 1676.460938 2297.101562 1678.328125 C 2304.421875 1687.390625 2324.261719 1715.96875 2330.949219 1725.488281 L 2304.539062 1694.769531 C 2311.398438 1709.371094 2319.328125 1724.5 2324.089844 1727.871094 C 2324.710938 1728.300781 2324.851562 1727.839844 2326.230469 1727.929688 C 2329.941406 1728.179688 2331.539062 1731.289062 2331.769531 1736.929688 C 2331.789062 1737.230469 2331.789062 1737.53125 2331.789062 1737.820312 C 2331.851562 1743.980469 2330.011719 1750.839844 2326.230469 1751.769531 C 2310.089844 1755.738281 2245.539062 1755.738281 2229.410156 1751.769531 C 2225.800781 1750.878906 2223.839844 1748.980469 2223.71875 1743.121094 C 2223.601562 1742.058594 2223.578125 1736.460938 2223.78125 1735.421875 C 2224.789062 1730.039062 2231.699219 1728.929688 2232.960938 1729 C 2241.601562 1729.488281 2254.289062 1694.761719 2260.351562 1676.5 C 2260.351562 1676.5 2256.109375 1676.320312 2254.460938 1677.449219 C 2244.640625 1684.140625 2201.410156 1716.660156 2201.410156 1716.660156 C 2217.128906 1701.519531 2242.480469 1672.488281 2258.410156 1666.351562 Z M 2258.410156 1665.550781 "/>
</clipPath>
<clipPath id="clip-18">
<path clip-rule="nonzero" d="M 2256 3944 L 2336 3944 L 2336 4190 L 2256 4190 Z M 2256 3944 "/>
</clipPath>
<clipPath id="clip-19">
<path clip-rule="evenodd" d="M 2258.410156 1665.550781 C 1913.640625 1660.710938 1674.351562 1243.710938 1647.078125 840.738281 C 1619.570312 434.03125 1929.640625 102.089844 2277.660156 102.089844 C 2625.691406 102.089844 2937.660156 434.160156 2908.238281 840.738281 C 2878.710938 1248.960938 2627.46875 1642.480469 2294.078125 1664.621094 L 2297.289062 1664.75 C 2367.308594 1671.28125 2465.511719 1857.460938 2336.660156 2130 C 2293.851562 2220.550781 2231.988281 2345.179688 2238.269531 2554.390625 C 2243.078125 2714.941406 2331.300781 2889.140625 2364.859375 2991.300781 C 2385.988281 3055.640625 2387.261719 3058.050781 2400.148438 3154.128906 C 2410.710938 3232.800781 2410.449219 3408.398438 2397.730469 3497.839844 C 2385.011719 3587.289062 2347.808594 3634 2323.851562 3690.808594 C 2292.980469 3764.011719 2242.589844 3906.289062 2259.441406 3962.445312 C 2265.671875 3983.230469 2276.058594 3992.121094 2287.710938 4004.207031 C 2306.96875 4024.179688 2329.671875 4052.871094 2342.78125 4158.347656 C 2345.679688 4181.679688 2353.75 4256.980469 2344.878906 4321.359375 C 2337.910156 4371.96875 2301 4405.035156 2291.078125 4446.882812 C 2283.019531 4480.886719 2282.691406 4556.84375 2285.359375 4572.4375 C 2288.039062 4588.035156 2317.621094 4674.007812 2288.199219 4594.109375 C 2276.449219 4562.191406 2255.238281 4464.746094 2262.578125 4406.457031 C 2271.988281 4331.746094 2318.699219 4252.871094 2331.558594 4188.996094 C 2340.578125 4144.238281 2304.679688 4099.226562 2285.96875 4059.140625 C 2264.96875 4014.121094 2255.140625 3983.691406 2251.339844 3939.847656 C 2238.941406 3796.980469 2249.730469 3705.621094 2295.5 3614.820312 C 2328.261719 3549.808594 2382.941406 3473.339844 2386.121094 3347.808594 C 2394.03125 3035.839844 2324.46875 2939.808594 2279.761719 2843.199219 C 2229.25 2734.019531 2210.238281 2563.679688 2215.980469 2425.328125 C 2221.71875 2286.988281 2290.609375 2121 2314.191406 2013.109375 C 2341.511719 1888.078125 2366.78125 1806.238281 2349.089844 1750.230469 C 2342.871094 1730.511719 2307.089844 1696.660156 2297.289062 1670.570312 L 2297.289062 1673.140625 L 2294.851562 1673.140625 C 2295.53125 1674.710938 2296.28125 1676.460938 2297.101562 1678.328125 C 2304.421875 1687.390625 2324.261719 1715.96875 2330.949219 1725.488281 L 2304.539062 1694.769531 C 2311.398438 1709.371094 2319.328125 1724.5 2324.089844 1727.871094 C 2324.710938 1728.300781 2324.851562 1727.839844 2326.230469 1727.929688 C 2329.941406 1728.179688 2331.539062 1731.289062 2331.769531 1736.929688 C 2331.789062 1737.230469 2331.789062 1737.53125 2331.789062 1737.820312 C 2331.851562 1743.980469 2330.011719 1750.839844 2326.230469 1751.769531 C 2310.089844 1755.738281 2245.539062 1755.738281 2229.410156 1751.769531 C 2225.800781 1750.878906 2223.839844 1748.980469 2223.71875 1743.121094 C 2223.601562 1742.058594 2223.578125 1736.460938 2223.78125 1735.421875 C 2224.789062 1730.039062 2231.699219 1728.929688 2232.960938 1729 C 2241.601562 1729.488281 2254.289062 1694.761719 2260.351562 1676.5 C 2260.351562 1676.5 2256.109375 1676.320312 2254.460938 1677.449219 C 2244.640625 1684.140625 2201.410156 1716.660156 2201.410156 1716.660156 C 2217.128906 1701.519531 2242.480469 1672.488281 2258.410156 1666.351562 Z M 2258.410156 1665.550781 "/>
</clipPath>
<clipPath id="clip-20">
<path clip-rule="nonzero" d="M 2258 1664 L 2298 1664 L 2298 1674 L 2258 1674 Z M 2258 1664 "/>
</clipPath>
<clipPath id="clip-21">
<path clip-rule="evenodd" d="M 2258.410156 1665.550781 C 1913.640625 1660.710938 1674.351562 1243.710938 1647.078125 840.738281 C 1619.570312 434.03125 1929.640625 102.089844 2277.660156 102.089844 C 2625.691406 102.089844 2937.660156 434.160156 2908.238281 840.738281 C 2878.710938 1248.960938 2627.46875 1642.480469 2294.078125 1664.621094 L 2297.289062 1664.75 C 2367.308594 1671.28125 2465.511719 1857.460938 2336.660156 2130 C 2293.851562 2220.550781 2231.988281 2345.179688 2238.269531 2554.390625 C 2243.078125 2714.941406 2331.300781 2889.140625 2364.859375 2991.300781 C 2385.988281 3055.640625 2387.261719 3058.050781 2400.148438 3154.128906 C 2410.710938 3232.800781 2410.449219 3408.398438 2397.730469 3497.839844 C 2385.011719 3587.289062 2347.808594 3634 2323.851562 3690.808594 C 2292.980469 3764.011719 2242.589844 3906.289062 2259.441406 3962.445312 C 2265.671875 3983.230469 2276.058594 3992.121094 2287.710938 4004.207031 C 2306.96875 4024.179688 2329.671875 4052.871094 2342.78125 4158.347656 C 2345.679688 4181.679688 2353.75 4256.980469 2344.878906 4321.359375 C 2337.910156 4371.96875 2301 4405.035156 2291.078125 4446.882812 C 2283.019531 4480.886719 2282.691406 4556.84375 2285.359375 4572.4375 C 2288.039062 4588.035156 2317.621094 4674.007812 2288.199219 4594.109375 C 2276.449219 4562.191406 2255.238281 4464.746094 2262.578125 4406.457031 C 2271.988281 4331.746094 2318.699219 4252.871094 2331.558594 4188.996094 C 2340.578125 4144.238281 2304.679688 4099.226562 2285.96875 4059.140625 C 2264.96875 4014.121094 2255.140625 3983.691406 2251.339844 3939.847656 C 2238.941406 3796.980469 2249.730469 3705.621094 2295.5 3614.820312 C 2328.261719 3549.808594 2382.941406 3473.339844 2386.121094 3347.808594 C 2394.03125 3035.839844 2324.46875 2939.808594 2279.761719 2843.199219 C 2229.25 2734.019531 2210.238281 2563.679688 2215.980469 2425.328125 C 2221.71875 2286.988281 2290.609375 2121 2314.191406 2013.109375 C 2341.511719 1888.078125 2366.78125 1806.238281 2349.089844 1750.230469 C 2342.871094 1730.511719 2307.089844 1696.660156 2297.289062 1670.570312 L 2297.289062 1673.140625 L 2294.851562 1673.140625 C 2295.53125 1674.710938 2296.28125 1676.460938 2297.101562 1678.328125 C 2304.421875 1687.390625 2324.261719 1715.96875 2330.949219 1725.488281 L 2304.539062 1694.769531 C 2311.398438 1709.371094 2319.328125 1724.5 2324.089844 1727.871094 C 2324.710938 1728.300781 2324.851562 1727.839844 2326.230469 1727.929688 C 2329.941406 1728.179688 2331.539062 1731.289062 2331.769531 1736.929688 C 2331.789062 1737.230469 2331.789062 1737.53125 2331.789062 1737.820312 C 2331.851562 1743.980469 2330.011719 1750.839844 2326.230469 1751.769531 C 2310.089844 1755.738281 2245.539062 1755.738281 2229.410156 1751.769531 C 2225.800781 1750.878906 2223.839844 1748.980469 2223.71875 1743.121094 C 2223.601562 1742.058594 2223.578125 1736.460938 2223.78125 1735.421875 C 2224.789062 1730.039062 2231.699219 1728.929688 2232.960938 1729 C 2241.601562 1729.488281 2254.289062 1694.761719 2260.351562 1676.5 C 2260.351562 1676.5 2256.109375 1676.320312 2254.460938 1677.449219 C 2244.640625 1684.140625 2201.410156 1716.660156 2201.410156 1716.660156 C 2217.128906 1701.519531 2242.480469 1672.488281 2258.410156 1666.351562 Z M 2258.410156 1665.550781 "/>
</clipPath>
<clipPath id="clip-22">
<path clip-rule="nonzero" d="M 2258 1664 L 2298 1664 L 2298 1670 L 2258 1670 Z M 2258 1664 "/>
</clipPath>
<clipPath id="clip-23">
<path clip-rule="evenodd" d="M 2258.410156 1665.550781 C 1913.640625 1660.710938 1674.351562 1243.710938 1647.078125 840.738281 C 1619.570312 434.03125 1929.640625 102.089844 2277.660156 102.089844 C 2625.691406 102.089844 2937.660156 434.160156 2908.238281 840.738281 C 2878.710938 1248.960938 2627.46875 1642.480469 2294.078125 1664.621094 L 2297.289062 1664.75 C 2367.308594 1671.28125 2465.511719 1857.460938 2336.660156 2130 C 2293.851562 2220.550781 2231.988281 2345.179688 2238.269531 2554.390625 C 2243.078125 2714.941406 2331.300781 2889.140625 2364.859375 2991.300781 C 2385.988281 3055.640625 2387.261719 3058.050781 2400.148438 3154.128906 C 2410.710938 3232.800781 2410.449219 3408.398438 2397.730469 3497.839844 C 2385.011719 3587.289062 2347.808594 3634 2323.851562 3690.808594 C 2292.980469 3764.011719 2242.589844 3906.289062 2259.441406 3962.445312 C 2265.671875 3983.230469 2276.058594 3992.121094 2287.710938 4004.207031 C 2306.96875 4024.179688 2329.671875 4052.871094 2342.78125 4158.347656 C 2345.679688 4181.679688 2353.75 4256.980469 2344.878906 4321.359375 C 2337.910156 4371.96875 2301 4405.035156 2291.078125 4446.882812 C 2283.019531 4480.886719 2282.691406 4556.84375 2285.359375 4572.4375 C 2288.039062 4588.035156 2317.621094 4674.007812 2288.199219 4594.109375 C 2276.449219 4562.191406 2255.238281 4464.746094 2262.578125 4406.457031 C 2271.988281 4331.746094 2318.699219 4252.871094 2331.558594 4188.996094 C 2340.578125 4144.238281 2304.679688 4099.226562 2285.96875 4059.140625 C 2264.96875 4014.121094 2255.140625 3983.691406 2251.339844 3939.847656 C 2238.941406 3796.980469 2249.730469 3705.621094 2295.5 3614.820312 C 2328.261719 3549.808594 2382.941406 3473.339844 2386.121094 3347.808594 C 2394.03125 3035.839844 2324.46875 2939.808594 2279.761719 2843.199219 C 2229.25 2734.019531 2210.238281 2563.679688 2215.980469 2425.328125 C 2221.71875 2286.988281 2290.609375 2121 2314.191406 2013.109375 C 2341.511719 1888.078125 2366.78125 1806.238281 2349.089844 1750.230469 C 2342.871094 1730.511719 2307.089844 1696.660156 2297.289062 1670.570312 L 2297.289062 1673.140625 L 2294.851562 1673.140625 C 2295.53125 1674.710938 2296.28125 1676.460938 2297.101562 1678.328125 C 2304.421875 1687.390625 2324.261719 1715.96875 2330.949219 1725.488281 L 2304.539062 1694.769531 C 2311.398438 1709.371094 2319.328125 1724.5 2324.089844 1727.871094 C 2324.710938 1728.300781 2324.851562 1727.839844 2326.230469 1727.929688 C 2329.941406 1728.179688 2331.539062 1731.289062 2331.769531 1736.929688 C 2331.789062 1737.230469 2331.789062 1737.53125 2331.789062 1737.820312 C 2331.851562 1743.980469 2330.011719 1750.839844 2326.230469 1751.769531 C 2310.089844 1755.738281 2245.539062 1755.738281 2229.410156 1751.769531 C 2225.800781 1750.878906 2223.839844 1748.980469 2223.71875 1743.121094 C 2223.601562 1742.058594 2223.578125 1736.460938 2223.78125 1735.421875 C 2224.789062 1730.039062 2231.699219 1728.929688 2232.960938 1729 C 2241.601562 1729.488281 2254.289062 1694.761719 2260.351562 1676.5 C 2260.351562 1676.5 2256.109375 1676.320312 2254.460938 1677.449219 C 2244.640625 1684.140625 2201.410156 1716.660156 2201.410156 1716.660156 C 2217.128906 1701.519531 2242.480469 1672.488281 2258.410156 1666.351562 Z M 2258.410156 1665.550781 "/>
</clipPath>
<clipPath id="clip-24">
<path clip-rule="nonzero" d="M 2201 1666 L 2280 1666 L 2280 1717 L 2201 1717 Z M 2201 1666 "/>
</clipPath>
<clipPath id="clip-25">
<path clip-rule="evenodd" d="M 2258.410156 1665.550781 C 1913.640625 1660.710938 1674.351562 1243.710938 1647.078125 840.738281 C 1619.570312 434.03125 1929.640625 102.089844 2277.660156 102.089844 C 2625.691406 102.089844 2937.660156 434.160156 2908.238281 840.738281 C 2878.710938 1248.960938 2627.46875 1642.480469 2294.078125 1664.621094 L 2297.289062 1664.75 C 2367.308594 1671.28125 2465.511719 1857.460938 2336.660156 2130 C 2293.851562 2220.550781 2231.988281 2345.179688 2238.269531 2554.390625 C 2243.078125 2714.941406 2331.300781 2889.140625 2364.859375 2991.300781 C 2385.988281 3055.640625 2387.261719 3058.050781 2400.148438 3154.128906 C 2410.710938 3232.800781 2410.449219 3408.398438 2397.730469 3497.839844 C 2385.011719 3587.289062 2347.808594 3634 2323.851562 3690.808594 C 2292.980469 3764.011719 2242.589844 3906.289062 2259.441406 3962.445312 C 2265.671875 3983.230469 2276.058594 3992.121094 2287.710938 4004.207031 C 2306.96875 4024.179688 2329.671875 4052.871094 2342.78125 4158.347656 C 2345.679688 4181.679688 2353.75 4256.980469 2344.878906 4321.359375 C 2337.910156 4371.96875 2301 4405.035156 2291.078125 4446.882812 C 2283.019531 4480.886719 2282.691406 4556.84375 2285.359375 4572.4375 C 2288.039062 4588.035156 2317.621094 4674.007812 2288.199219 4594.109375 C 2276.449219 4562.191406 2255.238281 4464.746094 2262.578125 4406.457031 C 2271.988281 4331.746094 2318.699219 4252.871094 2331.558594 4188.996094 C 2340.578125 4144.238281 2304.679688 4099.226562 2285.96875 4059.140625 C 2264.96875 4014.121094 2255.140625 3983.691406 2251.339844 3939.847656 C 2238.941406 3796.980469 2249.730469 3705.621094 2295.5 3614.820312 C 2328.261719 3549.808594 2382.941406 3473.339844 2386.121094 3347.808594 C 2394.03125 3035.839844 2324.46875 2939.808594 2279.761719 2843.199219 C 2229.25 2734.019531 2210.238281 2563.679688 2215.980469 2425.328125 C 2221.71875 2286.988281 2290.609375 2121 2314.191406 2013.109375 C 2341.511719 1888.078125 2366.78125 1806.238281 2349.089844 1750.230469 C 2342.871094 1730.511719 2307.089844 1696.660156 2297.289062 1670.570312 L 2297.289062 1673.140625 L 2294.851562 1673.140625 C 2295.53125 1674.710938 2296.28125 1676.460938 2297.101562 1678.328125 C 2304.421875 1687.390625 2324.261719 1715.96875 2330.949219 1725.488281 L 2304.539062 1694.769531 C 2311.398438 1709.371094 2319.328125 1724.5 2324.089844 1727.871094 C 2324.710938 1728.300781 2324.851562 1727.839844 2326.230469 1727.929688 C 2329.941406 1728.179688 2331.539062 1731.289062 2331.769531 1736.929688 C 2331.789062 1737.230469 2331.789062 1737.53125 2331.789062 1737.820312 C 2331.851562 1743.980469 2330.011719 1750.839844 2326.230469 1751.769531 C 2310.089844 1755.738281 2245.539062 1755.738281 2229.410156 1751.769531 C 2225.800781 1750.878906 2223.839844 1748.980469 2223.71875 1743.121094 C 2223.601562 1742.058594 2223.578125 1736.460938 2223.78125 1735.421875 C 2224.789062 1730.039062 2231.699219 1728.929688 2232.960938 1729 C 2241.601562 1729.488281 2254.289062 1694.761719 2260.351562 1676.5 C 2260.351562 1676.5 2256.109375 1676.320312 2254.460938 1677.449219 C 2244.640625 1684.140625 2201.410156 1716.660156 2201.410156 1716.660156 C 2217.128906 1701.519531 2242.480469 1672.488281 2258.410156 1666.351562 Z M 2258.410156 1665.550781 "/>
</clipPath>
<clipPath id="clip-26">
<path clip-rule="nonzero" d="M 2284 1673 L 2331 1673 L 2331 1726 L 2284 1726 Z M 2284 1673 "/>
</clipPath>
<clipPath id="clip-27">
<path clip-rule="evenodd" d="M 2258.410156 1665.550781 C 1913.640625 1660.710938 1674.351562 1243.710938 1647.078125 840.738281 C 1619.570312 434.03125 1929.640625 102.089844 2277.660156 102.089844 C 2625.691406 102.089844 2937.660156 434.160156 2908.238281 840.738281 C 2878.710938 1248.960938 2627.46875 1642.480469 2294.078125 1664.621094 L 2297.289062 1664.75 C 2367.308594 1671.28125 2465.511719 1857.460938 2336.660156 2130 C 2293.851562 2220.550781 2231.988281 2345.179688 2238.269531 2554.390625 C 2243.078125 2714.941406 2331.300781 2889.140625 2364.859375 2991.300781 C 2385.988281 3055.640625 2387.261719 3058.050781 2400.148438 3154.128906 C 2410.710938 3232.800781 2410.449219 3408.398438 2397.730469 3497.839844 C 2385.011719 3587.289062 2347.808594 3634 2323.851562 3690.808594 C 2292.980469 3764.011719 2242.589844 3906.289062 2259.441406 3962.445312 C 2265.671875 3983.230469 2276.058594 3992.121094 2287.710938 4004.207031 C 2306.96875 4024.179688 2329.671875 4052.871094 2342.78125 4158.347656 C 2345.679688 4181.679688 2353.75 4256.980469 2344.878906 4321.359375 C 2337.910156 4371.96875 2301 4405.035156 2291.078125 4446.882812 C 2283.019531 4480.886719 2282.691406 4556.84375 2285.359375 4572.4375 C 2288.039062 4588.035156 2317.621094 4674.007812 2288.199219 4594.109375 C 2276.449219 4562.191406 2255.238281 4464.746094 2262.578125 4406.457031 C 2271.988281 4331.746094 2318.699219 4252.871094 2331.558594 4188.996094 C 2340.578125 4144.238281 2304.679688 4099.226562 2285.96875 4059.140625 C 2264.96875 4014.121094 2255.140625 3983.691406 2251.339844 3939.847656 C 2238.941406 3796.980469 2249.730469 3705.621094 2295.5 3614.820312 C 2328.261719 3549.808594 2382.941406 3473.339844 2386.121094 3347.808594 C 2394.03125 3035.839844 2324.46875 2939.808594 2279.761719 2843.199219 C 2229.25 2734.019531 2210.238281 2563.679688 2215.980469 2425.328125 C 2221.71875 2286.988281 2290.609375 2121 2314.191406 2013.109375 C 2341.511719 1888.078125 2366.78125 1806.238281 2349.089844 1750.230469 C 2342.871094 1730.511719 2307.089844 1696.660156 2297.289062 1670.570312 L 2297.289062 1673.140625 L 2294.851562 1673.140625 C 2295.53125 1674.710938 2296.28125 1676.460938 2297.101562 1678.328125 C 2304.421875 1687.390625 2324.261719 1715.96875 2330.949219 1725.488281 L 2304.539062 1694.769531 C 2311.398438 1709.371094 2319.328125 1724.5 2324.089844 1727.871094 C 2324.710938 1728.300781 2324.851562 1727.839844 2326.230469 1727.929688 C 2329.941406 1728.179688 2331.539062 1731.289062 2331.769531 1736.929688 C 2331.789062 1737.230469 2331.789062 1737.53125 2331.789062 1737.820312 C 2331.851562 1743.980469 2330.011719 1750.839844 2326.230469 1751.769531 C 2310.089844 1755.738281 2245.539062 1755.738281 2229.410156 1751.769531 C 2225.800781 1750.878906 2223.839844 1748.980469 2223.71875 1743.121094 C 2223.601562 1742.058594 2223.578125 1736.460938 2223.78125 1735.421875 C 2224.789062 1730.039062 2231.699219 1728.929688 2232.960938 1729 C 2241.601562 1729.488281 2254.289062 1694.761719 2260.351562 1676.5 C 2260.351562 1676.5 2256.109375 1676.320312 2254.460938 1677.449219 C 2244.640625 1684.140625 2201.410156 1716.660156 2201.410156 1716.660156 C 2217.128906 1701.519531 2242.480469 1672.488281 2258.410156 1666.351562 Z M 2258.410156 1665.550781 "/>
</clipPath>
<clipPath id="clip-28">
<path clip-rule="nonzero" d="M 2277 1664 L 2432 1664 L 2432 2296 L 2277 2296 Z M 2277 1664 "/>
</clipPath>
<clipPath id="clip-29">
<path clip-rule="evenodd" d="M 2258.410156 1665.550781 C 1913.640625 1660.710938 1674.351562 1243.710938 1647.078125 840.738281 C 1619.570312 434.03125 1929.640625 102.089844 2277.660156 102.089844 C 2625.691406 102.089844 2937.660156 434.160156 2908.238281 840.738281 C 2878.710938 1248.960938 2627.46875 1642.480469 2294.078125 1664.621094 L 2297.289062 1664.75 C 2367.308594 1671.28125 2465.511719 1857.460938 2336.660156 2130 C 2293.851562 2220.550781 2231.988281 2345.179688 2238.269531 2554.390625 C 2243.078125 2714.941406 2331.300781 2889.140625 2364.859375 2991.300781 C 2385.988281 3055.640625 2387.261719 3058.050781 2400.148438 3154.128906 C 2410.710938 3232.800781 2410.449219 3408.398438 2397.730469 3497.839844 C 2385.011719 3587.289062 2347.808594 3634 2323.851562 3690.808594 C 2292.980469 3764.011719 2242.589844 3906.289062 2259.441406 3962.445312 C 2265.671875 3983.230469 2276.058594 3992.121094 2287.710938 4004.207031 C 2306.96875 4024.179688 2329.671875 4052.871094 2342.78125 4158.347656 C 2345.679688 4181.679688 2353.75 4256.980469 2344.878906 4321.359375 C 2337.910156 4371.96875 2301 4405.035156 2291.078125 4446.882812 C 2283.019531 4480.886719 2282.691406 4556.84375 2285.359375 4572.4375 C 2288.039062 4588.035156 2317.621094 4674.007812 2288.199219 4594.109375 C 2276.449219 4562.191406 2255.238281 4464.746094 2262.578125 4406.457031 C 2271.988281 4331.746094 2318.699219 4252.871094 2331.558594 4188.996094 C 2340.578125 4144.238281 2304.679688 4099.226562 2285.96875 4059.140625 C 2264.96875 4014.121094 2255.140625 3983.691406 2251.339844 3939.847656 C 2238.941406 3796.980469 2249.730469 3705.621094 2295.5 3614.820312 C 2328.261719 3549.808594 2382.941406 3473.339844 2386.121094 3347.808594 C 2394.03125 3035.839844 2324.46875 2939.808594 2279.761719 2843.199219 C 2229.25 2734.019531 2210.238281 2563.679688 2215.980469 2425.328125 C 2221.71875 2286.988281 2290.609375 2121 2314.191406 2013.109375 C 2341.511719 1888.078125 2366.78125 1806.238281 2349.089844 1750.230469 C 2342.871094 1730.511719 2307.089844 1696.660156 2297.289062 1670.570312 L 2297.289062 1673.140625 L 2294.851562 1673.140625 C 2295.53125 1674.710938 2296.28125 1676.460938 2297.101562 1678.328125 C 2304.421875 1687.390625 2324.261719 1715.96875 2330.949219 1725.488281 L 2304.539062 1694.769531 C 2311.398438 1709.371094 2319.328125 1724.5 2324.089844 1727.871094 C 2324.710938 1728.300781 2324.851562 1727.839844 2326.230469 1727.929688 C 2329.941406 1728.179688 2331.539062 1731.289062 2331.769531 1736.929688 C 2331.789062 1737.230469 2331.789062 1737.53125 2331.789062 1737.820312 C 2331.851562 1743.980469 2330.011719 1750.839844 2326.230469 1751.769531 C 2310.089844 1755.738281 2245.539062 1755.738281 2229.410156 1751.769531 C 2225.800781 1750.878906 2223.839844 1748.980469 2223.71875 1743.121094 C 2223.601562 1742.058594 2223.578125 1736.460938 2223.78125 1735.421875 C 2224.789062 1730.039062 2231.699219 1728.929688 2232.960938 1729 C 2241.601562 1729.488281 2254.289062 1694.761719 2260.351562 1676.5 C 2260.351562 1676.5 2256.109375 1676.320312 2254.460938 1677.449219 C 2244.640625 1684.140625 2201.410156 1716.660156 2201.410156 1716.660156 C 2217.128906 1701.519531 2242.480469 1672.488281 2258.410156 1666.351562 Z M 2258.410156 1665.550781 "/>
</clipPath>
</defs>
<path fill-rule="evenodd" fill="rgb(92.771912%, 0%, 4.899597%)" fill-opacity="1" d="M 2258.410156 1665.550781 C 1913.640625 1660.710938 1674.351562 1243.710938 1647.078125 840.738281 C 1619.570312 434.03125 1929.640625 102.089844 2277.660156 102.089844 C 2625.691406 102.089844 2937.660156 434.160156 2908.238281 840.738281 C 2878.710938 1248.960938 2627.46875 1642.480469 2294.078125 1664.621094 L 2297.289062 1664.75 C 2367.308594 1671.28125 2465.511719 1857.460938 2336.660156 2130 C 2293.851562 2220.550781 2231.988281 2345.179688 2238.269531 2554.390625 C 2243.078125 2714.941406 2331.300781 2889.140625 2364.859375 2991.300781 C 2385.988281 3055.640625 2387.261719 3058.050781 2400.148438 3154.128906 C 2410.710938 3232.800781 2410.449219 3408.398438 2397.730469 3497.839844 C 2385.011719 3587.289062 2347.808594 3634 2323.851562 3690.808594 C 2292.980469 3764.011719 2242.589844 3906.289062 2259.441406 3962.445312 C 2265.671875 3983.230469 2276.058594 3992.121094 2287.710938 4004.207031 C 2306.96875 4024.179688 2329.671875 4052.871094 2342.78125 4158.347656 C 2345.679688 4181.679688 2353.75 4256.980469 2344.878906 4321.359375 C 2337.910156 4371.96875 2301 4405.035156 2291.078125 4446.882812 C 2283.019531 4480.886719 2282.691406 4556.84375 2285.359375 4572.4375 C 2288.039062 4588.035156 2317.621094 4674.007812 2288.199219 4594.109375 C 2276.449219 4562.191406 2255.238281 4464.746094 2262.578125 4406.457031 C 2271.988281 4331.746094 2318.699219 4252.871094 2331.558594 4188.996094 C 2340.578125 4144.238281 2304.679688 4099.226562 2285.96875 4059.140625 C 2264.96875 4014.121094 2255.140625 3983.691406 2251.339844 3939.847656 C 2238.941406 3796.980469 2249.730469 3705.621094 2295.5 3614.820312 C 2328.261719 3549.808594 2382.941406 3473.339844 2386.121094 3347.808594 C 2394.03125 3035.839844 2324.46875 2939.808594 2279.761719 2843.199219 C 2229.25 2734.019531 2210.238281 2563.679688 2215.980469 2425.328125 C 2221.71875 2286.988281 2290.609375 2121 2314.191406 2013.109375 C 2341.511719 1888.078125 2366.78125 1806.238281 2349.089844 1750.230469 C 2342.871094 1730.511719 2307.089844 1696.660156 2297.289062 1670.570312 L 2297.289062 1673.140625 L 2294.851562 1673.140625 C 2295.53125 1674.710938 2296.28125 1676.460938 2297.101562 1678.328125 C 2304.421875 1687.390625 2324.261719 1715.96875 2330.949219 1725.488281 L 2304.539062 1694.769531 C 2311.398438 1709.371094 2319.328125 1724.5 2324.089844 1727.871094 C 2324.710938 1728.300781 2324.851562 1727.839844 2326.230469 1727.929688 C 2329.941406 1728.179688 2331.539062 1731.289062 2331.769531 1736.929688 C 2331.789062 1737.230469 2331.789062 1737.53125 2331.789062 1737.820312 C 2331.851562 1743.980469 2330.011719 1750.839844 2326.230469 1751.769531 C 2310.089844 1755.738281 2245.539062 1755.738281 2229.410156 1751.769531 C 2225.800781 1750.878906 2223.839844 1748.980469 2223.71875 1743.121094 C 2223.601562 1742.058594 2223.578125 1736.460938 2223.78125 1735.421875 C 2224.789062 1730.039062 2231.699219 1728.929688 2232.960938 1729 C 2241.601562 1729.488281 2254.289062 1694.761719 2260.351562 1676.5 C 2260.351562 1676.5 2256.109375 1676.320312 2254.460938 1677.449219 C 2244.640625 1684.140625 2201.410156 1716.660156 2201.410156 1716.660156 C 2217.128906 1701.519531 2242.480469 1672.488281 2258.410156 1666.351562 L 2258.410156 1665.550781 "/>
<g clip-path="url(#clip-0)">
<g clip-path="url(#clip-1)">
<path fill-rule="evenodd" fill="rgb(100%, 26.904297%, 29.905701%)" fill-opacity="1" d="M 2319.539062 1736.359375 C 2320.878906 1736.5 2322.050781 1736.660156 2323.039062 1736.820312 C 2330.511719 1738.050781 2330.511719 1751.53125 2323.039062 1752.761719 C 2306.898438 1755.410156 2242.351562 1755.410156 2226.21875 1752.761719 C 2218.75 1751.53125 2218.75 1738.050781 2226.21875 1736.820312 C 2227.210938 1736.660156 2230.03125 1736.421875 2231.359375 1736.28125 C 2243.679688 1713.539062 2258.140625 1691.640625 2263.039062 1666 L 2285.519531 1664.878906 L 2319.539062 1736.359375 "/>
</g>
</g>
<g clip-path="url(#clip-2)">
<g clip-path="url(#clip-3)">
<path fill-rule="evenodd" fill="rgb(95.506287%, 18.60199%, 22.509766%)" fill-opacity="1" d="M 2314.109375 1736.199219 C 2315.570312 1736.339844 2316.851562 1736.488281 2317.941406 1736.640625 C 2326.109375 1737.851562 2326.160156 1751.328125 2317.988281 1752.578125 C 2300.339844 1755.300781 2229.710938 1755.53125 2212.050781 1752.929688 C 2203.871094 1751.730469 2203.828125 1738.25 2212 1736.988281 C 2213.078125 1736.820312 2214.359375 1736.671875 2215.820312 1736.519531 C 2258.808594 1729.5 2273.589844 1665.640625 2273.589844 1665.640625 L 2285.550781 1664.878906 L 2314.109375 1736.199219 "/>
</g>
</g>
<g clip-path="url(#clip-4)">
<g clip-path="url(#clip-5)">
<path fill-rule="evenodd" fill="rgb(87.304688%, 6.809998%, 10.888672%)" fill-opacity="1" d="M 2324.089844 1729.421875 L 2326.210938 1736.820312 L 2326.210938 1752.761719 C 2326.210938 1752.761719 2245.519531 1755.410156 2229.378906 1752.761719 C 2221.910156 1751.53125 2221.910156 1738.050781 2229.378906 1736.820312 C 2230.371094 1736.660156 2231.550781 1736.5 2232.878906 1736.359375 C 2286.800781 1735.789062 2285.589844 1664.878906 2285.589844 1664.878906 L 2291.109375 1664.929688 L 2297.261719 1680.640625 L 2330.960938 1725.929688 L 2308.71875 1699.101562 L 2324.089844 1729.421875 "/>
</g>
</g>
<g clip-path="url(#clip-6)">
<g clip-path="url(#clip-7)">
<path fill-rule="evenodd" fill="rgb(84.179688%, 0%, 4.399109%)" fill-opacity="1" d="M 2326.058594 1727.371094 C 2302.230469 1731.671875 2248.921875 1729.839844 2223.78125 1729.769531 C 2220.660156 1729.761719 2223.199219 1750.730469 2226.011719 1751.699219 C 2242.25 1757.269531 2309.378906 1755.75 2326.058594 1751.699219 C 2333.78125 1749.820312 2334.101562 1725.921875 2326.058594 1727.371094 "/>
</g>
</g>
<g clip-path="url(#clip-8)">
<g clip-path="url(#clip-9)">
<path fill-rule="evenodd" fill="rgb(95.896912%, 0%, 4.899597%)" fill-opacity="1" d="M 2349.339844 88.609375 C 2700.738281 196.96875 2885.941406 619.878906 2762.671875 1032.429688 C 2639.398438 1444.96875 2254.03125 1691.929688 1902.628906 1583.558594 C 1551.238281 1475.199219 1366.03125 1052.289062 1489.308594 639.75 C 1612.578125 227.199219 1997.949219 -19.75 2349.339844 88.609375 "/>
</g>
</g>
<g clip-path="url(#clip-10)">
<g clip-path="url(#clip-11)">
<path fill-rule="evenodd" fill="rgb(100%, 12.792969%, 17.210388%)" fill-opacity="1" d="M 2194.980469 71.679688 C 2404.410156 125.25 2513.339844 415.308594 2438.058594 719.019531 C 2362.789062 1022.71875 2131.640625 1225.800781 1922.199219 1172.21875 C 1712.769531 1118.648438 1603.839844 828.589844 1679.121094 524.890625 C 1754.390625 221.191406 1985.539062 18.109375 2194.980469 71.679688 "/>
</g>
</g>
<g clip-path="url(#clip-12)">
<g clip-path="url(#clip-13)">
<path fill-rule="evenodd" fill="rgb(100%, 55.859375%, 58.006287%)" fill-opacity="1" d="M 2160.070312 227.761719 C 2221.179688 267.25 2154.660156 382.398438 2072.230469 487.660156 C 1989.800781 592.910156 1913.539062 626.011719 1859.761719 582.539062 C 1805.96875 539.078125 1814.890625 438.371094 1897.320312 333.121094 C 1979.738281 227.859375 2101.988281 190.230469 2160.070312 227.761719 "/>
</g>
</g>
<g clip-path="url(#clip-14)">
<g clip-path="url(#clip-15)">
<path fill-rule="evenodd" fill="rgb(99.804688%, 48.802185%, 51.367188%)" fill-opacity="1" d="M 1827.328125 610.179688 C 1854.078125 631.800781 1857.171875 673.128906 1834.238281 702.421875 C 1811.300781 731.710938 1770.960938 737.941406 1744.210938 716.320312 C 1717.460938 694.699219 1714.371094 653.371094 1737.300781 624.078125 C 1760.238281 594.789062 1800.578125 588.558594 1827.328125 610.179688 "/>
</g>
</g>
<g clip-path="url(#clip-16)">
<g clip-path="url(#clip-17)">
<path fill-rule="evenodd" fill="rgb(79.6875%, 8.203125%, 13.305664%)" fill-opacity="1" d="M 2242.5 2755.359375 C 2234.691406 2661.140625 2235.539062 2589.738281 2238.53125 2505.960938 L 2404.460938 3134.769531 C 2405.339844 3367.71875 2410.359375 3336.601562 2358.839844 3474.789062 L 2360.128906 3166.5 L 2242.5 2755.359375 "/>
</g>
</g>
<g clip-path="url(#clip-18)">
<g clip-path="url(#clip-19)">
<path fill-rule="evenodd" fill="rgb(77.34375%, 0%, 5.499268%)" fill-opacity="1" d="M 2256.941406 3950.628906 L 2278.46875 3944.003906 L 2330.730469 4061.144531 C 2326.609375 4074.261719 2341.941406 4148.59375 2331.488281 4189.019531 C 2316.601562 4175.015625 2262.71875 4023.730469 2256.941406 3950.628906 "/>
</g>
</g>
<g clip-path="url(#clip-20)">
<g clip-path="url(#clip-21)">
<path fill-rule="evenodd" fill="rgb(76.951599%, 0%, 3.900146%)" fill-opacity="1" d="M 2297.261719 1664.949219 L 2258.46875 1664.949219 L 2258.46875 1673.308594 L 2297.261719 1673.308594 L 2297.261719 1664.949219 "/>
</g>
</g>
<g clip-path="url(#clip-22)">
<g clip-path="url(#clip-23)">
<path fill-rule="evenodd" fill="rgb(83.201599%, 7.102966%, 10.888672%)" fill-opacity="1" d="M 2297.25 1664.660156 L 2258.46875 1664.660156 L 2258.46875 1669.128906 L 2297.25 1669.128906 L 2297.25 1664.660156 "/>
</g>
</g>
<g clip-path="url(#clip-24)">
<g clip-path="url(#clip-25)">
<path fill-rule="evenodd" fill="rgb(76.951599%, 0%, 3.900146%)" fill-opacity="1" d="M 2262.371094 1672.78125 L 2258.46875 1672.128906 L 2258.46875 1666.328125 C 2252.460938 1665.519531 2229.28125 1686.238281 2201.429688 1716.808594 C 2219.308594 1701.539062 2250.378906 1682.320312 2260.878906 1676.058594 C 2263.78125 1674.328125 2279.460938 1673.308594 2279.460938 1673.308594 C 2279.460938 1673.308594 2261.628906 1672.96875 2262.371094 1672.78125 "/>
</g>
</g>
<g clip-path="url(#clip-26)">
<g clip-path="url(#clip-27)">
<path fill-rule="evenodd" fill="rgb(76.951599%, 0%, 3.900146%)" fill-opacity="1" d="M 2330.960938 1725.570312 L 2301.378906 1691.558594 L 2284.519531 1673.308594 L 2294.488281 1673.308594 L 2330.960938 1725.570312 "/>
</g>
</g>
<g clip-path="url(#clip-28)">
<g clip-path="url(#clip-29)">
<path fill-rule="evenodd" fill="rgb(76.951599%, 0%, 3.900146%)" fill-opacity="1" d="M 2296.160156 1664.410156 C 2382.96875 1674.460938 2452.589844 1910.871094 2425.160156 2133.550781 L 2284.519531 2295.019531 C 2276.191406 2149.421875 2360 1841.691406 2349.351562 1753.941406 C 2346.230469 1728.179688 2317.050781 1706.988281 2307.738281 1691.558594 C 2301.910156 1681.910156 2298.390625 1678.148438 2296.890625 1673.308594 C 2296.570312 1672.28125 2296.679688 1669.128906 2296.679688 1669.128906 L 2277.859375 1669.128906 L 2277.859375 1664.660156 L 2296.160156 1664.410156 "/>
</g>
</g>
</svg>
